<svg version="1.1" id="Layer_1" xmlns="http://www.w3.org/2000/svg" xmlns:xlink="http://www.w3.org/1999/xlink" x="0px" y="0px"
	 width="100%" viewBox="0 0 353 331" enable-background="new 0 0 353 331" xml:space="preserve">
<path fill="#FEFEFE" opacity="1.000000" stroke="none" 
	d="
M198.000000,332.000000 
	C132.000015,332.000000 66.500023,332.000000 1.000026,332.000000 
	C1.000018,221.666702 1.000018,111.333397 1.000009,1.000071 
	C118.666618,1.000047 236.333237,1.000047 353.999878,1.000024 
	C353.999939,111.333260 353.999939,221.666519 353.999969,331.999878 
	C302.166656,332.000000 250.333328,332.000000 198.000000,332.000000 
M88.159142,265.390381 
	C88.318802,265.675110 88.549980,265.878540 89.092072,266.305756 
	C89.092072,266.305756 89.159210,266.687653 89.078888,267.449585 
	C90.361526,268.990723 91.644157,270.531860 92.898018,272.760101 
	C93.115799,274.238098 92.791016,276.306580 93.645470,277.091675 
	C97.304070,280.453339 101.267845,283.492523 105.230453,286.504425 
	C105.908279,287.019623 107.122375,286.829285 108.533577,287.042206 
	C108.533577,287.042206 108.984970,287.052460 108.993759,286.996674 
	C108.993759,286.996674 108.946617,287.027740 109.204262,287.543304 
	C109.808342,287.975830 110.412422,288.408325 111.224205,289.097321 
	C111.224205,289.097321 111.553787,289.114868 111.857674,289.656921 
	C112.213028,289.861938 112.568375,290.066956 113.244865,290.844788 
	C146.451447,315.546295 182.702057,325.805176 224.025848,316.193817 
	C305.043976,297.350128 351.436249,219.779495 337.622681,142.753143 
	C330.673035,104.001114 312.364258,71.698982 279.225311,48.582447 
	C231.108826,15.018138 179.338516,5.966567 123.350998,24.160023 
	C96.378601,32.924854 73.782486,48.846748 53.714996,69.574966 
	C51.719330,71.918221 49.278618,74.018784 47.836258,76.663765 
	C45.860165,80.287498 44.642010,84.324539 42.944324,88.854279 
	C37.271503,99.520134 31.598686,110.185989 25.374783,121.172119 
	C25.254021,121.779922 25.133257,122.387726 24.803024,123.210030 
	C24.803024,123.210030 24.839115,123.507660 24.328278,123.838303 
	C24.255571,124.222412 24.182865,124.606529 23.937622,125.372505 
	C23.937622,125.372505 23.907320,125.790443 23.420012,126.011017 
	C23.328466,126.334251 23.236921,126.657494 22.966948,127.462486 
	C22.917494,127.799263 22.868040,128.136047 22.333231,128.826797 
	C22.262129,129.207748 22.191025,129.588715 21.946070,130.424408 
	C21.946070,130.424408 21.942080,130.911224 21.394409,131.397263 
	C19.200050,139.781143 17.005692,148.165024 14.198382,157.116058 
	C13.190536,169.400528 12.182692,181.685013 11.044138,194.747589 
	C11.095345,196.043549 11.146551,197.339493 11.067868,199.498245 
	C10.713376,201.566116 9.934526,203.678940 10.147208,205.686737 
	C10.299861,207.127823 11.777790,208.428543 12.664490,209.791885 
	C13.761179,208.732986 13.929186,208.363129 13.819347,208.117569 
	C13.633219,207.701508 13.271660,207.363922 13.070227,206.198471 
	C13.112453,205.134720 13.154679,204.070969 13.844411,202.868622 
	C14.628689,202.398361 15.412967,201.928116 16.269325,201.414627 
	C16.964979,204.600357 17.614426,207.574478 18.263872,210.548599 
	C18.742525,210.436188 19.221178,210.323776 19.699833,210.211365 
	C19.137211,206.236618 18.574587,202.261887 18.634018,197.667923 
	C18.718788,194.414688 18.803560,191.161469 18.986439,187.011459 
	C20.277811,176.671921 21.569183,166.332397 23.038877,155.237473 
	C23.660830,152.490616 24.282784,149.743759 25.091682,146.627701 
	C25.091682,146.627701 25.087219,146.213882 25.629507,145.767593 
	C25.782385,144.856339 25.935263,143.945084 26.006226,143.019577 
	C26.006226,143.019577 26.066229,143.077148 26.530121,142.708755 
	C26.635773,142.145569 26.741425,141.582382 27.012533,140.548187 
	C27.012533,140.548187 27.016203,140.048965 27.543171,139.627457 
	C27.727156,138.761322 27.911142,137.895172 28.015898,137.019043 
	C28.015898,137.019043 28.062080,137.084198 28.566486,136.751373 
	C28.676395,136.175613 28.786304,135.599838 29.285776,134.412323 
	C34.608917,124.281944 39.932056,114.151573 45.955700,104.004410 
	C47.304417,103.668999 48.653133,103.333580 50.032379,103.500771 
	C50.187729,103.768105 50.343082,104.035446 50.498432,104.302780 
	C50.670120,103.873100 50.841808,103.443420 51.505417,102.681351 
	C51.676434,102.125717 51.847450,101.570091 52.304089,100.896515 
	C52.197865,100.924866 52.091640,100.953209 51.501301,101.323975 
	C51.329754,101.878189 51.158203,102.432411 50.492584,102.996849 
	C50.492584,102.996849 49.998108,103.001831 49.997108,102.141411 
	C49.944332,100.704056 49.891556,99.266701 49.913498,98.011864 
	C49.913498,98.011864 49.809853,97.843880 50.464027,97.873093 
	C52.956005,96.752724 55.447987,95.632347 57.800488,94.574684 
	C56.750820,93.515472 55.787533,92.543419 54.891346,91.231575 
	C54.891346,91.231575 55.163029,91.016724 55.877522,91.002975 
	C64.432503,89.567253 70.863152,85.397530 73.999405,76.998009 
	C73.999405,76.998009 73.944572,76.973221 74.413765,76.786324 
	C74.607391,76.518089 74.801025,76.249855 75.204193,75.523491 
	C75.485016,75.353523 75.765846,75.183556 76.462700,74.843491 
	C76.725967,74.678978 76.917480,74.453506 77.437309,73.625389 
	C81.227509,70.662491 84.875191,67.492599 88.830330,64.769234 
	C122.230080,41.771404 158.583130,31.865688 199.074295,40.763897 
	C199.723221,40.818527 200.372162,40.873158 201.698151,40.909008 
	C202.138000,41.002567 202.577835,41.096127 203.407257,41.628574 
	C203.972992,41.722275 204.538742,41.815979 204.997711,41.973564 
	C204.997711,41.973564 205.084076,41.883915 204.929276,42.610023 
	C203.939865,43.646065 202.950455,44.682106 201.508667,46.191853 
	C206.252747,46.878075 210.139664,47.440311 214.483398,48.011028 
	C214.483398,48.011028 214.939789,48.032318 215.147568,48.373547 
	C215.433411,48.244289 215.719269,48.115036 216.585876,48.138130 
	C217.051773,48.509819 217.517670,48.881508 218.008728,50.001709 
	C218.308075,50.738636 218.448822,51.984215 218.931061,52.134583 
	C224.337387,53.820290 229.796295,55.337357 235.646927,56.945923 
	C235.646927,56.945923 235.988647,57.169708 236.007904,57.883602 
	C239.167343,62.416252 243.846466,64.160423 249.001648,65.001900 
	C249.001648,65.001900 249.018326,64.971695 249.018539,65.746460 
	C249.388168,71.113281 253.739227,70.278328 257.714111,71.167229 
	C258.801880,72.132568 259.889618,73.097916 261.029572,74.657616 
	C261.089813,75.757683 261.150024,76.857758 261.208954,77.934036 
	C262.588013,77.934036 263.840485,77.934036 265.009644,77.990372 
	C265.009644,77.990372 265.065735,77.906906 265.023102,78.712471 
	C266.276550,81.737984 267.530029,84.763496 268.746033,87.698647 
	C271.049133,88.094437 273.142670,88.454208 275.119080,88.976273 
	C275.119080,88.976273 275.192291,88.790016 275.073730,89.584846 
	C274.645782,92.707932 276.416107,93.755150 279.062561,93.950813 
	C279.062561,93.950813 279.080170,93.853310 279.237366,94.358490 
	C279.516144,94.561058 279.794891,94.763634 280.002747,94.989754 
	C280.002747,94.989754 280.048523,94.930664 280.023743,95.659927 
	C280.713074,96.420410 281.402374,97.180893 282.011078,97.993523 
	C282.011078,97.993523 282.064789,97.913933 282.016327,98.633430 
	C281.337677,101.309906 281.312561,103.510086 285.040833,102.988091 
	C285.040833,102.988091 285.092896,102.878868 285.034515,103.665268 
	C286.052643,105.092010 287.070770,106.518761 288.011475,107.993240 
	C288.011475,107.993240 288.059753,107.916122 288.016296,108.729195 
	C287.935608,109.544533 288.123840,110.897964 287.733185,111.093208 
	C283.057526,113.430099 283.701447,117.381783 284.205872,121.914070 
	C282.577972,121.237694 281.884033,120.121902 280.966125,119.239029 
	C279.743378,118.063026 278.346344,117.068253 276.566864,115.630424 
	C276.340942,115.100677 276.115021,114.570923 276.432343,113.634903 
	C276.342651,112.873718 276.476776,111.983475 276.125000,111.373413 
	C274.492004,108.541443 272.724335,105.787140 271.501770,103.001251 
	C271.501770,103.001251 271.998779,103.001221 272.107117,103.280060 
	C272.193665,103.329475 272.280212,103.378899 272.366760,103.428307 
	C272.244934,103.285225 272.123077,103.142143 271.968201,102.496033 
	C271.811310,102.229454 271.654388,101.962875 271.497498,101.696289 
	C271.330017,102.129166 271.162567,102.562042 270.410736,102.935555 
	C269.261993,102.633812 268.113251,102.332062 267.003082,102.003716 
	C267.003082,102.003716 266.973236,102.041344 266.983032,101.302910 
	C266.020569,100.526138 265.058105,99.749374 263.531189,98.937569 
	C263.357483,98.864220 263.183807,98.790871 263.009277,97.900665 
	C262.998627,96.601875 263.203400,95.251419 262.908234,94.020874 
	C262.678375,93.062561 261.826294,92.253502 261.250732,91.378120 
	C260.493591,92.234177 259.736450,93.090233 258.508331,93.945549 
	C258.508331,93.945549 258.037811,93.916809 257.630554,93.417450 
	C255.754654,92.944862 253.878738,92.472282 251.669022,91.375977 
	C250.394989,90.946663 249.120941,90.517357 247.197311,89.886047 
	C246.504318,89.431290 245.805939,88.984497 245.119095,88.520622 
	C217.437698,69.825485 187.053772,62.188358 154.303406,69.398636 
	C124.173309,76.032028 99.429039,91.240685 83.216019,118.968315 
	C65.737404,148.860367 58.695980,180.178940 65.711189,214.413834 
	C68.502281,228.034637 73.892586,240.567596 80.176598,253.339203 
	C80.329407,253.641312 80.561783,253.858185 81.096397,254.305222 
	C81.096397,254.305222 81.141205,254.688736 81.068901,255.478287 
	C81.864861,259.189545 82.878746,262.743134 87.566551,263.993347 
	C87.566551,263.993347 87.953033,264.080627 87.991829,264.016205 
	C87.991829,264.016205 87.918175,264.031372 87.960289,264.487915 
	C87.960289,264.487915 88.018921,264.942657 88.159142,265.390381 
M19.257162,218.165924 
	C19.667620,218.220612 20.078075,218.275299 20.488533,218.329987 
	C20.290798,217.802200 20.093065,217.274414 19.895329,216.746628 
	C19.631571,217.040375 19.367813,217.334122 19.257162,218.165924 
M44.615036,80.520020 
	C44.615036,80.520020 44.477531,80.608414 44.615036,80.520020 
M200.596741,44.517246 
	C200.596741,44.517246 200.475189,44.591995 200.596741,44.517246 
M282.591370,109.515862 
	C282.591370,109.515862 282.476410,109.585655 282.591370,109.515862 
M281.402344,107.482567 
	C281.402344,107.482567 281.523804,107.407616 281.402344,107.482567 
M13.403814,217.483002 
	C13.403814,217.483002 13.524080,217.408981 13.403814,217.483002 
M14.517515,219.408646 
	C14.517515,219.408646 14.585539,219.521988 14.517515,219.408646 
M41.398663,84.483459 
	C41.398663,84.483459 41.524334,84.404663 41.398663,84.483459 
z"/>
<path fill="#38749E" opacity="1.000000" stroke="none" 
	d="
M25.087219,146.213882 
	C25.087219,146.213882 25.091682,146.627701 24.664291,146.756287 
	C23.284849,145.623840 21.582764,144.398804 21.520214,143.095093 
	C21.326136,139.049866 21.754971,134.974747 21.942081,130.911224 
	C21.942080,130.911224 21.946070,130.424408 22.254276,130.007843 
	C22.647850,129.218445 22.733219,128.845642 22.818588,128.472824 
	C22.868040,128.136047 22.917494,127.799263 23.258450,127.078354 
	C23.788561,126.440224 23.907684,126.138962 23.907320,125.790443 
	C23.907320,125.790443 23.937622,125.372505 24.246601,124.994476 
	C24.650091,124.246857 24.744604,123.877258 24.839115,123.507660 
	C24.839115,123.507660 24.803024,123.210030 25.159061,122.918594 
	C25.652023,122.035385 25.788946,121.443619 25.925869,120.851845 
	C31.598686,110.185989 37.271503,99.520134 43.322098,88.356461 
	C47.045235,83.239746 50.541771,78.718506 53.631802,73.934685 
	C54.424068,72.708145 53.932987,70.652657 54.031494,68.977997 
	C73.782486,48.846748 96.378601,32.924854 123.350998,24.160023 
	C179.338516,5.966567 231.108826,15.018138 279.225311,48.582447 
	C312.364258,71.698982 330.673035,104.001114 337.622681,142.753143 
	C351.436249,219.779495 305.043976,297.350128 224.025848,316.193817 
	C182.702057,325.805176 146.451447,315.546295 112.963875,290.258484 
	C112.306519,289.486420 111.930153,289.300659 111.553787,289.114868 
	C111.553787,289.114868 111.224205,289.097321 111.067017,288.658936 
	C110.255432,287.822968 109.601021,287.425354 108.946617,287.027740 
	C108.946617,287.027740 108.993759,286.996674 108.882034,286.787170 
	C108.481285,286.397339 108.192253,286.217041 107.939697,286.027283 
	C107.976166,286.017792 107.965324,286.092377 107.865555,285.847351 
	C107.475342,285.415375 107.184898,285.228424 106.932709,285.035278 
	C106.970970,285.029114 106.962494,285.106140 106.847656,284.850891 
	C106.414070,284.418793 106.095306,284.241913 105.576187,284.002716 
	C105.115364,283.787811 104.963417,283.562195 104.835915,282.986206 
	C104.437096,282.503876 104.122337,282.298798 103.864075,282.087799 
	C103.920570,282.081879 103.897041,282.193024 103.817749,281.925720 
	C103.430847,281.470032 103.123238,281.281708 102.869446,281.084839 
	C102.923256,281.076324 102.906586,281.184021 102.823303,280.918335 
	C102.431129,280.467316 102.122246,280.281921 101.866959,280.087708 
	C101.920555,280.078888 101.903397,280.186188 101.822792,279.920532 
	C101.436867,279.464996 101.131546,279.275146 100.877701,279.077179 
	C100.929169,279.069061 100.914673,279.172272 100.830238,278.910156 
	C100.443527,278.457886 100.141251,278.267731 99.887711,278.070801 
	C99.936455,278.064026 99.921959,278.161377 99.834213,277.900879 
	C99.442963,277.452972 99.139442,277.265533 98.885490,277.069275 
	C98.935059,277.060455 98.925247,277.160645 98.833351,276.897400 
	C98.435890,276.439484 98.130325,276.244843 97.612091,275.977356 
	C97.136009,275.718567 96.991814,275.464905 96.880928,274.891602 
	C96.516876,274.432343 96.238701,274.224945 95.980919,274.008362 
	C96.001305,273.999146 95.981514,274.039307 95.883942,273.804810 
	C95.510307,273.385620 95.234238,273.200867 94.979660,273.008118 
	C95.001144,273.000122 94.975754,273.038300 94.981056,272.669159 
	C94.252914,271.584137 93.519478,270.868286 92.829514,270.121887 
	C92.872986,270.091370 92.896950,270.194855 92.816925,269.925903 
	C92.434219,269.455017 92.131531,269.253021 91.619827,268.961182 
	C91.162201,268.669098 91.017799,268.409027 90.982529,267.730896 
	C90.336258,266.561035 89.685059,265.751373 88.902771,264.729858 
	C88.545258,264.253998 88.260757,264.091766 87.918175,264.031372 
	C87.918175,264.031372 87.991829,264.016205 87.989990,263.665894 
	C86.636116,261.555542 85.284096,259.795441 83.963211,258.020813 
	C83.994354,258.006226 83.972794,258.071533 83.895828,257.845276 
	C83.654411,257.330322 83.417862,257.124390 82.926666,256.753296 
	C82.209808,255.899811 81.675507,255.294266 81.141205,254.688736 
	C81.141205,254.688736 81.096397,254.305222 80.980698,253.888031 
	C80.595749,253.270264 80.326508,253.069687 80.057266,252.869110 
	C73.892586,240.567596 68.502281,228.034637 65.711189,214.413834 
	C58.695980,180.178940 65.737404,148.860367 83.216019,118.968315 
	C99.429039,91.240685 124.173309,76.032028 154.303406,69.398636 
	C187.053772,62.188358 217.437698,69.825485 245.119095,88.520622 
	C245.805939,88.984497 246.504318,89.431290 247.670181,90.276260 
	C249.395752,91.486977 250.648438,92.307472 251.934723,93.088531 
	C251.968323,93.049095 251.867142,93.071426 251.963928,93.322014 
	C252.362366,93.750366 252.664001,93.928139 253.112518,94.382355 
	C254.122864,95.241394 254.986328,95.823997 255.992920,96.644386 
	C256.726288,97.314728 257.316498,97.747276 257.992920,98.398216 
	C258.286835,98.873962 258.554626,99.023926 259.028015,99.374115 
	C260.797821,101.153099 262.422150,102.624458 264.234955,104.266533 
	C264.579712,102.815811 264.797882,101.897842 265.306641,100.992142 
	C266.055939,101.350052 266.514587,101.695694 266.973236,102.041344 
	C266.973236,102.041344 267.003082,102.003716 267.097931,102.334854 
	C270.091553,106.457726 272.990326,110.249451 275.889099,114.041168 
	C276.115021,114.570923 276.340942,115.100677 276.857056,116.160400 
	C287.488983,133.943542 291.036224,153.320526 294.420074,172.865967 
	C297.403259,166.190414 297.800842,159.342697 296.491272,152.623352 
	C294.632080,143.083832 292.031311,133.688843 289.960358,124.039772 
	C290.305084,123.708832 290.436920,123.570221 290.739990,123.744629 
	C292.775543,128.253647 294.639832,132.449677 296.504120,136.645691 
	C297.498383,125.866898 293.182739,116.767776 288.059753,107.916122 
	C288.059753,107.916122 288.011475,107.993240 287.996735,107.634460 
	C287.018951,105.810074 286.055939,104.344467 285.092896,102.878868 
	C285.092896,102.878868 285.040833,102.988091 285.032379,102.616455 
	C284.037537,100.801186 283.051178,99.357559 282.064789,97.913933 
	C282.064789,97.913933 282.011078,97.993523 281.984375,97.660751 
	C281.321259,96.528870 280.684906,95.729767 280.048523,94.930664 
	C280.048523,94.930664 280.002747,94.989754 279.973389,94.716339 
	C279.656067,94.246384 279.368134,94.049850 279.080170,93.853310 
	C279.080170,93.853310 279.062561,93.950813 279.031189,93.601265 
	C277.730621,91.764481 276.461456,90.277252 275.192291,88.790024 
	C275.192291,88.790016 275.119080,88.976273 275.077759,88.573471 
	C271.712891,84.749413 268.389313,81.328163 265.065735,77.906906 
	C265.065735,77.906906 265.009644,77.990372 264.932434,77.663109 
	C263.562592,76.244987 262.269989,75.154121 260.977386,74.063263 
	C259.889618,73.097916 258.801880,72.132568 257.272095,70.752106 
	C254.226135,68.548553 251.622223,66.760124 249.018326,64.971695 
	C249.018326,64.971695 249.001648,65.001900 248.847366,64.695526 
	C244.458267,61.982674 240.223465,59.576191 235.988647,57.169708 
	C235.988647,57.169708 235.646927,56.945923 235.247284,56.621696 
	C229.226303,53.949379 223.604935,51.601288 217.983582,49.253197 
	C217.517670,48.881508 217.051773,48.509819 216.274139,47.677311 
	C214.024811,41.994423 208.906967,43.259987 205.084076,41.883915 
	C205.084076,41.883915 204.997711,41.973564 204.879211,41.694485 
	C204.179718,41.340164 203.598694,41.264923 203.017685,41.189682 
	C202.577835,41.096127 202.138000,41.002567 201.171814,40.697372 
	C200.092621,40.391350 199.539780,40.296967 198.986923,40.202583 
	C158.583130,31.865688 122.230080,41.771404 88.830330,64.769234 
	C84.875191,67.492599 81.227509,70.662491 76.997849,73.928986 
	C76.248123,74.401382 76.077553,74.661720 76.046669,75.013588 
	C75.765846,75.183556 75.485016,75.353523 74.844437,75.815582 
	C74.304634,76.396194 74.124603,76.684708 73.944572,76.973221 
	C73.944572,76.973221 73.999405,76.998009 73.680588,77.002586 
	C72.956299,77.025269 72.550835,77.043365 71.811539,77.004868 
	C67.325737,73.856171 66.101830,76.796799 65.022156,80.042633 
	C65.003716,80.012672 65.072754,80.026276 64.832108,80.126938 
	C64.404366,80.512642 64.217270,80.797676 64.021545,81.047752 
	C64.012924,81.012794 64.082825,81.030098 63.840553,81.128090 
	C63.407253,81.509293 63.216225,81.792503 63.017250,82.042114 
	C63.009300,82.008507 63.076279,82.025337 62.836273,82.125702 
	C62.404984,82.507530 62.213699,82.789001 62.014256,83.038223 
	C62.006096,83.005974 62.070499,83.022621 61.832001,83.122696 
	C61.401379,83.501472 61.209259,83.780174 61.009850,84.029572 
	C61.002560,84.000259 61.060555,84.017097 60.822788,84.122688 
	C60.399727,84.513855 60.214432,84.799431 60.020363,85.050156 
	C60.011585,85.015305 60.082439,85.027344 59.838348,85.133011 
	C59.405304,85.530571 59.216351,85.822456 58.959019,86.335152 
	C58.721699,86.845612 58.470371,87.006866 57.883072,87.142632 
	C57.435337,87.545311 57.241196,87.845078 56.949928,88.422531 
	C56.289543,89.472374 55.726284,90.244545 55.163025,91.016724 
	C55.163029,91.016724 54.891346,91.231575 54.569862,91.591324 
	C52.768875,93.915344 51.289364,95.879608 49.809853,97.843880 
	C49.809853,97.843880 49.913498,98.011864 49.584679,98.072495 
	C47.922306,100.095825 46.588753,102.058510 45.255196,104.021194 
	C39.932056,114.151573 34.608917,124.281944 28.858479,134.900818 
	C28.308147,135.954269 28.185116,136.519226 28.062080,137.084198 
	C28.062080,137.084198 28.015898,137.019043 27.768593,137.211792 
	C27.352926,138.286026 27.184565,139.167496 27.016203,140.048965 
	C27.016203,140.048965 27.012533,140.548187 26.706778,140.972519 
	C26.289425,141.956955 26.177828,142.517044 26.066231,143.077148 
	C26.066229,143.077148 26.006226,143.019577 25.755663,143.231445 
	C25.365807,144.366821 25.226513,145.290359 25.087219,146.213882 
M264.924561,232.902939 
	C264.924561,232.902939 264.901001,232.779266 264.317291,232.887451 
	C263.876556,233.257263 263.435852,233.627075 262.351746,234.090271 
	C261.232178,234.741913 260.112640,235.393555 258.391510,236.088303 
	C258.093231,236.345612 257.794952,236.602936 256.964508,236.831680 
	C256.634399,236.956604 256.304291,237.081528 255.438156,237.189392 
	C255.175247,237.419250 254.912338,237.649124 254.291275,237.857864 
	C254.291275,237.857864 254.003326,238.071930 253.416550,238.039322 
	C252.931747,238.331177 252.446945,238.623047 251.338913,238.957275 
	C250.814651,239.260010 250.290390,239.562744 249.351181,239.923492 
	C249.351181,239.923492 249.055862,240.220749 248.298035,240.148590 
	C247.541168,240.073425 246.784317,239.998276 245.983521,239.194595 
	C244.949738,238.530487 243.955444,237.373001 242.875427,237.286560 
	C237.853210,236.884598 227.620682,243.515839 225.745285,247.345764 
	C222.792358,245.538696 220.048111,243.062561 216.843338,242.063034 
	C210.048355,239.943802 203.050217,238.415436 196.067139,236.975754 
	C187.967209,235.305817 180.726166,232.662186 174.450119,226.626221 
	C166.226074,218.716782 157.481689,211.123398 148.038498,204.764145 
	C136.508286,196.999435 123.283104,194.175034 109.393814,197.258926 
	C97.417519,199.918045 86.455109,205.115005 76.407318,212.101547 
	C75.303307,212.869217 74.579544,215.465500 74.952744,216.876968 
	C78.553574,230.495712 84.373108,243.127762 92.520950,254.659393 
	C93.282471,255.737152 93.847893,256.953491 94.608429,258.288116 
	C108.389595,247.235641 121.163353,248.558548 134.491776,256.645172 
	C144.715485,262.848083 155.780334,267.659790 166.042252,273.806183 
	C173.441574,278.238037 180.950516,278.693817 189.084473,277.656708 
	C195.158936,276.882141 201.310349,276.675446 207.433990,276.330963 
	C215.720306,275.864777 224.035843,275.751831 232.289932,274.970581 
	C235.091263,274.705414 237.941162,273.198669 240.428299,271.695740 
	C248.094574,267.063049 255.598114,262.160919 263.161621,257.358307 
	C269.394562,253.400574 275.622833,249.435501 283.019989,244.731735 
	C280.530090,242.613663 278.936279,241.257874 277.186188,239.769104 
	C277.722382,239.141464 278.444916,238.295654 279.767059,237.117523 
	C281.175293,234.506348 286.588898,232.558746 281.068909,228.903183 
	C281.068909,228.903183 281.183716,228.878433 280.975433,228.407379 
	C280.657379,228.327759 280.339325,228.248138 279.374481,227.874512 
	C278.225342,227.707199 277.076202,227.539902 275.184784,227.182205 
	C272.079163,228.754639 268.973541,230.327057 265.953461,231.950882 
	C265.953461,231.950882 265.927612,231.854507 265.407471,232.026810 
	C265.204803,232.314148 265.002136,232.601486 264.924561,232.902939 
M171.129822,115.119560 
	C171.129822,115.119560 171.238831,115.245941 170.478897,115.091782 
	C168.403519,116.510559 166.328140,117.929344 164.082855,119.044540 
	C164.082855,119.044540 164.284882,119.327782 163.500732,119.125122 
	C161.084702,119.921097 158.460831,120.369972 156.331696,121.645012 
	C155.082062,122.393356 154.619751,124.456421 153.933060,126.444077 
	C153.967560,126.618027 154.002045,126.791985 153.984009,127.739182 
	C153.473587,128.471985 153.114334,129.618866 152.427856,129.869507 
	C148.380341,131.347321 148.086502,133.794830 150.398804,137.681091 
	C150.352554,138.097717 150.306290,138.514343 149.584335,139.465805 
	C149.411102,153.661209 149.223221,167.856506 149.106400,182.052383 
	C149.100342,182.788223 149.498306,183.923416 150.050110,184.206741 
	C155.791077,187.154404 161.602188,189.965469 167.909164,192.851700 
	C168.319458,193.139130 168.729752,193.426559 169.117294,194.473923 
	C173.934525,199.387527 179.983566,201.998932 186.794495,203.778000 
	C186.794495,203.778000 187.002731,204.008255 187.076492,204.727280 
	C189.566971,206.321381 192.057449,207.915482 194.547928,209.509583 
	C194.646317,208.862549 194.744690,208.215500 194.843079,207.568466 
	C196.649216,207.066345 198.455338,206.564224 200.567230,206.681656 
	C201.047150,207.128403 201.527054,207.575150 202.427017,208.543381 
	C204.615540,207.029770 206.804047,205.516144 209.173630,203.761948 
	C209.173630,203.761948 209.473129,203.730942 210.230957,203.862747 
	C211.492569,202.939255 212.754196,202.015762 214.251251,200.843582 
	C214.251251,200.843582 214.591446,200.804214 215.254990,200.895355 
	C215.849945,200.375977 216.444901,199.856583 217.410126,198.970490 
	C217.742111,198.889557 218.074097,198.808624 219.073807,198.714035 
	C219.349747,198.391586 219.625702,198.069153 220.196991,197.345062 
	C220.651825,197.160828 221.106659,196.976578 222.383011,196.915100 
	C230.195740,192.609589 238.136047,188.506882 245.674088,183.764725 
	C246.721176,183.106018 245.784286,179.293579 245.625519,176.019455 
	C245.668655,163.703445 245.711777,151.387421 246.394989,138.590942 
	C247.587372,132.380844 246.940430,131.473984 241.023590,130.554688 
	C240.519348,130.476334 240.175278,129.367172 239.980423,128.773300 
	C239.980423,128.773300 239.757141,128.760040 240.413742,128.873077 
	C240.953644,128.307510 241.493546,127.741936 242.068329,126.518471 
	C241.716949,125.970161 241.365570,125.421852 240.932724,124.189873 
	C237.784622,122.543587 234.636520,120.897301 230.855225,119.128494 
	C229.583115,118.325577 228.311020,117.522652 226.933243,116.052925 
	C224.770157,114.376045 222.783646,112.367271 220.402390,111.100525 
	C216.883087,109.228386 213.083237,107.883621 209.138077,106.299088 
	C209.138077,106.299088 208.980850,106.085510 208.919907,105.344810 
	C206.781982,104.309143 204.644058,103.273468 202.203552,102.225998 
	C202.203552,102.225998 202.000275,102.001564 201.910843,101.254105 
	C198.447205,97.725533 195.971497,98.041214 193.138565,102.034599 
	C193.138565,102.034599 193.295670,102.341324 192.546967,102.131973 
	C191.360962,103.076767 190.174957,104.021561 188.785965,105.203178 
	C188.785965,105.203178 188.474579,105.221344 187.671646,105.127716 
	C183.416824,106.326302 179.063385,107.371185 176.652786,112.426720 
	C175.967087,112.723030 175.281387,113.019341 173.840988,113.159309 
	C172.952118,113.866348 172.063248,114.573387 171.129822,115.119560 
z"/>
<path fill="#F3FBFB" opacity="1.000000" stroke="none" 
	d="
M288.038025,108.322662 
	C293.182739,116.767776 297.498383,125.866898 296.504120,136.645691 
	C294.639832,132.449677 292.775543,128.253647 290.584473,123.503418 
	C289.934814,122.752884 289.611969,122.556580 289.289154,122.360275 
	C289.441925,122.984215 289.594666,123.608162 289.747437,124.232101 
	C292.031311,133.688843 294.632080,143.083832 296.491272,152.623352 
	C297.800842,159.342697 297.403259,166.190414 294.420074,172.865967 
	C291.036224,153.320526 287.488983,133.943542 277.085754,116.343002 
	C278.346344,117.068253 279.743378,118.063026 280.966125,119.239029 
	C281.884033,120.121902 282.577972,121.237694 284.205872,121.914070 
	C283.701447,117.381783 283.057526,113.430099 287.733185,111.093208 
	C288.123840,110.897964 287.935608,109.544533 288.038025,108.322662 
z"/>
<path fill="#F4FCFD" opacity="1.000000" stroke="none" 
	d="
M18.011965,198.287140 
	C18.574587,202.261887 19.137211,206.236618 19.699833,210.211365 
	C19.221178,210.323776 18.742525,210.436188 18.263872,210.548599 
	C17.614426,207.574478 16.964979,204.600357 16.269325,201.414627 
	C15.412967,201.928116 14.628689,202.398361 13.455727,202.489151 
	C12.944760,199.389496 12.822478,196.669327 12.764889,193.489029 
	C13.903405,181.696075 14.977229,170.363220 16.299885,158.862518 
	C16.756577,158.136642 16.964437,157.578613 17.532852,157.102478 
	C18.305540,158.569778 18.717676,159.955170 19.124910,161.768066 
	C18.689667,168.101303 18.259325,174.007050 17.639565,180.172089 
	C17.514732,181.663025 17.579325,182.894669 17.651905,184.526489 
	C17.628160,185.992828 17.596426,187.058975 17.358612,188.441559 
	C17.439009,191.934402 17.725487,195.110764 18.011965,198.287140 
z"/>
<path fill="#4B7693" opacity="1.000000" stroke="none" 
	d="
M17.172298,157.020584 
	C16.964437,157.578613 16.756577,158.136642 16.015577,158.641235 
	C15.258737,157.908157 15.035036,157.228531 14.811335,156.548904 
	C17.005692,148.165024 19.200050,139.781143 21.668245,131.154236 
	C21.754971,134.974747 21.326136,139.049866 21.520214,143.095093 
	C21.582764,144.398804 23.284849,145.623840 24.570820,146.940887 
	C24.282784,149.743759 23.660830,152.490616 22.607012,155.547394 
	C21.715649,155.109818 21.256151,154.362335 20.823944,153.227722 
	C20.851234,151.082840 20.851234,149.325073 20.851234,147.567307 
	C20.553967,147.490509 20.256697,147.413712 19.959429,147.336899 
	C19.030386,150.564789 18.101343,153.792694 17.172298,157.020584 
z"/>
<path fill="#EFF9FA" opacity="1.000000" stroke="none" 
	d="
M58.136662,87.039726 
	C58.470371,87.006866 58.721699,86.845612 59.207569,86.234573 
	C59.710480,85.617912 59.896461,85.322632 60.082443,85.027344 
	C60.082439,85.027344 60.011585,85.015305 60.247688,85.006226 
	C60.483788,84.997139 60.938786,84.912865 60.987640,85.204697 
	C61.435551,85.819054 61.834602,86.141586 62.233658,86.464119 
	C62.318829,86.201851 62.524303,85.740967 62.470394,85.708313 
	C61.977135,85.409546 61.438816,85.185173 60.950260,84.708588 
	C60.986881,84.478065 61.060555,84.017097 61.060555,84.017097 
	C61.060555,84.017097 61.002560,84.000259 61.261971,83.948250 
	C61.704422,83.605034 61.887463,83.313828 62.070503,83.022621 
	C62.070499,83.022621 62.006096,83.005974 62.264725,82.951950 
	C62.707664,82.607063 62.891972,82.316200 63.076279,82.025337 
	C63.076279,82.025337 63.009300,82.008507 63.270851,81.959534 
	C63.715878,81.617073 63.899353,81.323586 64.082825,81.030098 
	C64.082825,81.030098 64.012924,81.012794 64.273651,80.961678 
	C64.713829,80.615799 64.893288,80.321037 65.072754,80.026276 
	C65.072754,80.026276 65.003716,80.012672 65.385162,79.993530 
	C67.892868,79.003418 70.019119,78.032448 72.145370,77.061478 
	C72.550835,77.043365 72.956299,77.025269 73.664658,76.977051 
	C70.863152,85.397530 64.432503,89.567253 55.520271,91.009850 
	C55.726284,90.244545 56.289543,89.472374 57.199097,88.314003 
	C57.742481,87.631775 57.939571,87.335754 58.136662,87.039726 
z"/>
<path fill="#607B8D" opacity="1.000000" stroke="none" 
	d="
M14.504859,156.832489 
	C15.035036,157.228531 15.258737,157.908157 15.766745,158.809082 
	C14.977229,170.363220 13.903405,181.696075 12.510727,193.490692 
	C11.852864,193.958145 11.513855,193.963821 11.174847,193.969482 
	C12.182692,181.685013 13.190536,169.400528 14.504859,156.832489 
z"/>
<path fill="#607B8D" opacity="1.000000" stroke="none" 
	d="
M20.796656,153.614853 
	C21.256151,154.362335 21.715649,155.109818 22.517851,155.925079 
	C21.569183,166.332397 20.277811,176.671921 18.603699,187.496964 
	C18.002205,188.030014 17.783447,188.077560 17.564692,188.125107 
	C17.596426,187.058975 17.628160,185.992828 17.784925,184.119568 
	C17.882967,182.179230 17.855976,181.046021 17.828985,179.912796 
	C18.259325,174.007050 18.689667,168.101303 19.368322,161.441986 
	C20.009977,158.330566 20.403316,155.972717 20.796656,153.614853 
z"/>
<path fill="#EAF7FB" opacity="1.000000" stroke="none" 
	d="
M96.966812,275.143463 
	C96.991814,275.464905 97.136009,275.718567 97.717758,276.231750 
	C98.332481,276.759521 98.628860,276.960083 98.925247,277.160645 
	C98.925247,277.160645 98.935059,277.060455 98.968948,277.332153 
	C99.309204,277.789673 99.615585,277.975525 99.921967,278.161377 
	C99.921959,278.161377 99.936455,278.064026 99.979858,278.328583 
	C100.320404,278.786163 100.617538,278.979218 100.914673,279.172272 
	C100.914673,279.172272 100.929169,279.069061 100.964294,279.339355 
	C101.300743,279.801819 101.602074,279.993988 101.903397,280.186188 
	C101.903397,280.186188 101.920555,280.078888 101.956291,280.349243 
	C102.296883,280.807739 102.601730,280.995880 102.906586,281.184021 
	C102.906586,281.184021 102.923256,281.076324 102.956551,281.346619 
	C103.292244,281.808929 103.594643,282.000977 103.897041,282.193024 
	C103.897041,282.193024 103.920570,282.081879 103.953506,282.360107 
	C104.297623,282.846741 104.608803,283.055115 104.919983,283.263489 
	C104.963417,283.562195 105.115364,283.787811 105.691681,284.256622 
	C106.325851,284.750610 106.644173,284.928375 106.962494,285.106140 
	C106.962494,285.106140 106.970970,285.029114 107.020432,285.288940 
	C107.368370,285.729950 107.666847,285.911163 107.965324,286.092377 
	C107.965324,286.092377 107.976166,286.017792 107.985245,286.259583 
	C107.994324,286.501343 108.088730,286.964905 108.088730,286.964905 
	C107.122375,286.829285 105.908279,287.019623 105.230453,286.504425 
	C101.267845,283.492523 97.304070,280.453339 93.645470,277.091675 
	C92.791016,276.306580 93.115799,274.238098 93.003319,272.333344 
	C93.108620,271.906586 93.290497,271.743011 93.520134,271.889771 
	C94.158432,272.370422 94.567093,272.704376 94.975754,273.038300 
	C94.975754,273.038300 95.001144,273.000122 95.062561,273.253693 
	C95.409821,273.684601 95.695663,273.861969 95.981514,274.039307 
	C95.981514,274.039307 96.001305,273.999146 96.063652,274.262268 
	C96.406265,274.731445 96.686539,274.937469 96.966812,275.143463 
z"/>
<path fill="#E8F9FC" opacity="1.000000" stroke="none" 
	d="
M205.006683,42.246971 
	C208.906967,43.259987 214.024811,41.994423 215.983749,47.601135 
	C215.719269,48.115036 215.433411,48.244289 214.977829,48.029785 
	C214.547577,47.791531 214.287079,47.897038 214.026566,48.002548 
	C210.139664,47.440311 206.252747,46.878075 201.508667,46.191853 
	C202.950455,44.682106 203.939865,43.646065 205.006683,42.246971 
z"/>
<path fill="#E7F4F8" opacity="1.000000" stroke="none" 
	d="
M53.873245,69.276482 
	C53.932987,70.652657 54.424068,72.708145 53.631802,73.934685 
	C50.541771,78.718506 47.045235,83.239746 43.399445,88.021545 
	C44.642010,84.324539 45.860165,80.287498 47.836258,76.663765 
	C49.278618,74.018784 51.719330,71.918221 53.873245,69.276482 
z"/>
<path fill="#F3FBFB" opacity="1.000000" stroke="none" 
	d="
M217.996155,49.627453 
	C223.604935,51.601288 229.226303,53.949379 235.044357,56.598633 
	C229.796295,55.337357 224.337387,53.820290 218.931061,52.134583 
	C218.448822,51.984215 218.308075,50.738636 217.996155,49.627453 
z"/>
<path fill="#F3FBFB" opacity="1.000000" stroke="none" 
	d="
M265.044434,78.309692 
	C268.389313,81.328163 271.712891,84.749413 275.136322,88.492325 
	C273.142670,88.454208 271.049133,88.094437 268.746033,87.698647 
	C267.530029,84.763496 266.276550,81.737984 265.044434,78.309692 
z"/>
<path fill="#F3FBFB" opacity="1.000000" stroke="none" 
	d="
M258.882568,99.066498 
	C258.554626,99.023926 258.286835,98.873962 258.019470,98.002319 
	C257.971008,96.594307 257.982239,95.800591 257.996948,95.003021 
	C258.000458,94.999176 258.007080,94.990471 258.234863,94.886734 
	C258.634827,94.504089 258.807068,94.225189 258.979279,93.946289 
	C259.736450,93.090233 260.493591,92.234177 261.250732,91.378113 
	C261.826294,92.253502 262.678375,93.062561 262.908234,94.020874 
	C263.203400,95.251419 262.998627,96.601875 262.743408,98.377464 
	C262.300079,98.900276 262.122650,98.946297 261.562103,98.991707 
	C260.413544,99.016228 259.648041,99.041359 258.882568,99.066498 
z"/>
<path fill="#F3FBFB" opacity="1.000000" stroke="none" 
	d="
M276.160706,113.838036 
	C272.990326,110.249451 270.091553,106.457726 267.078644,102.348160 
	C268.113251,102.332062 269.261993,102.633812 270.705383,102.967773 
	C271.000000,103.000000 271.004883,103.005028 271.004883,103.005028 
	C272.724335,105.787140 274.492004,108.541443 276.125000,111.373413 
	C276.476776,111.983475 276.342651,112.873718 276.160706,113.838036 
z"/>
<path fill="#F3FBFB" opacity="1.000000" stroke="none" 
	d="
M235.998276,57.526653 
	C240.223465,59.576191 244.458267,61.982674 248.861252,64.684616 
	C243.846466,64.160423 239.167343,62.416252 235.998276,57.526653 
z"/>
<path fill="#F4FCFD" opacity="1.000000" stroke="none" 
	d="
M12.983844,206.993347 
	C13.271660,207.363922 13.633219,207.701508 13.819347,208.117569 
	C13.929186,208.363129 13.761179,208.732986 12.664490,209.791885 
	C11.777790,208.428543 10.299861,207.127823 10.147208,205.686737 
	C9.934526,203.678940 10.713376,201.566116 11.355444,199.416687 
	C12.089961,201.887863 12.536901,204.440598 12.983844,206.993347 
z"/>
<path fill="#F3FBFB" opacity="1.000000" stroke="none" 
	d="
M249.018433,65.359085 
	C251.622223,66.760124 254.226135,68.548553 256.976685,70.643280 
	C253.739227,70.278328 249.388168,71.113281 249.018433,65.359085 
z"/>
<path fill="#ABBDCC" opacity="1.000000" stroke="none" 
	d="
M17.358612,188.441559 
	C17.783447,188.077560 18.002205,188.030014 18.554646,187.945343 
	C18.803560,191.161469 18.718788,194.414688 18.322990,197.977539 
	C17.725487,195.110764 17.439009,191.934402 17.358612,188.441559 
z"/>
<path fill="#EAF7FB" opacity="1.000000" stroke="none" 
	d="
M81.105057,255.083511 
	C81.675507,255.294266 82.209808,255.899811 82.942047,257.010376 
	C83.417580,257.700806 83.695183,257.886169 83.972794,258.071533 
	C83.972794,258.071533 83.994354,258.006226 84.059341,258.346313 
	C85.141937,260.431000 86.159554,262.175568 87.177170,263.920135 
	C82.878746,262.743134 81.864861,259.189545 81.105057,255.083511 
z"/>
<path fill="#EFF9FA" opacity="1.000000" stroke="none" 
	d="
M50.136940,97.858490 
	C51.289364,95.879608 52.768875,93.915344 54.536312,91.761223 
	C55.787533,92.543419 56.750820,93.515472 57.800488,94.574684 
	C55.447987,95.632347 52.956005,96.752724 50.136940,97.858490 
z"/>
<path fill="#758B9D" opacity="1.000000" stroke="none" 
	d="
M13.027035,206.595917 
	C12.536901,204.440598 12.089961,201.887863 11.420389,198.985291 
	C11.146551,197.339493 11.095345,196.043549 11.109492,194.358536 
	C11.513855,193.963821 11.852864,193.958145 12.446034,193.950806 
	C12.822478,196.669327 12.944760,199.389496 13.131973,202.558441 
	C13.154679,204.070969 13.112453,205.134720 13.027035,206.595917 
z"/>
<path fill="#F3FBFB" opacity="1.000000" stroke="none" 
	d="
M255.849792,96.406601 
	C254.986328,95.823997 254.122864,95.241394 253.009995,94.135681 
	C252.462769,93.432175 252.164963,93.251801 251.867142,93.071426 
	C251.867142,93.071426 251.968323,93.049095 251.967987,92.807053 
	C251.979385,92.376579 251.991104,92.188133 252.002838,91.999695 
	C253.878738,92.472282 255.754654,92.944862 257.816040,93.935745 
	C258.003418,94.632843 258.005249,94.811661 258.007080,94.990471 
	C258.007080,94.990471 258.000458,94.999176 257.654633,95.044312 
	C256.822479,95.528496 256.336121,95.967545 255.849792,96.406601 
z"/>
<path fill="#EFF9FA" opacity="1.000000" stroke="none" 
	d="
M45.605450,104.012802 
	C46.588753,102.058510 47.922306,100.095825 49.547318,97.981239 
	C49.891556,99.266701 49.944332,100.704056 49.998554,102.570709 
	C50.000000,103.000000 50.001850,102.998169 50.001850,102.998169 
	C48.653133,103.333580 47.304417,103.668999 45.605450,104.012802 
z"/>
<path fill="#F3FBFB" opacity="1.000000" stroke="none" 
	d="
M275.132996,89.187439 
	C276.461456,90.277252 277.730621,91.764481 279.072662,93.574188 
	C276.416107,93.755150 274.645782,92.707932 275.132996,89.187439 
z"/>
<path fill="#EAF7FB" opacity="1.000000" stroke="none" 
	d="
M90.977608,268.091125 
	C91.017799,268.409027 91.162201,268.669098 91.714615,269.223022 
	C92.311264,269.781494 92.604111,269.988159 92.896950,270.194855 
	C92.896950,270.194855 92.872986,270.091370 92.890762,270.393799 
	C93.035851,271.045166 93.163177,271.394104 93.290497,271.743011 
	C93.290497,271.743011 93.108620,271.906586 93.017700,271.989807 
	C91.644157,270.531860 90.361526,268.990723 89.376228,267.212219 
	C90.108253,267.346924 90.542931,267.719025 90.977608,268.091125 
z"/>
<path fill="#F3FBFB" opacity="1.000000" stroke="none" 
	d="
M282.040558,98.273682 
	C283.051178,99.357559 284.037537,100.801186 285.077942,102.576637 
	C281.312561,103.510086 281.337677,101.309906 282.040558,98.273682 
z"/>
<path fill="#F3FBFB" opacity="1.000000" stroke="none" 
	d="
M261.003479,74.360435 
	C262.269989,75.154121 263.562592,76.244987 264.974060,77.634941 
	C263.840485,77.934036 262.588013,77.934036 261.208954,77.934036 
	C261.150024,76.857758 261.089813,75.757683 261.003479,74.360435 
z"/>
<path fill="#4A738F" opacity="1.000000" stroke="none" 
	d="
M87.371857,263.956726 
	C86.159554,262.175568 85.141937,260.431000 84.028198,258.360901 
	C85.284096,259.795441 86.636116,261.555542 87.970589,263.698120 
	C87.953033,264.080627 87.566551,263.993347 87.371857,263.956726 
z"/>
<path fill="#F3FBFB" opacity="1.000000" stroke="none" 
	d="
M285.063721,103.272064 
	C286.055939,104.344467 287.018951,105.810074 288.035461,107.610596 
	C287.070770,106.518761 286.052643,105.092010 285.063721,103.272064 
z"/>
<path fill="#E3F6FB" opacity="1.000000" stroke="none" 
	d="
M251.835938,91.687836 
	C251.991104,92.188133 251.979385,92.376579 251.934387,92.846497 
	C250.648438,92.307472 249.395752,91.486977 247.994980,90.377258 
	C249.120941,90.517357 250.394989,90.946663 251.835938,91.687836 
z"/>
<path fill="#F3FBFB" opacity="1.000000" stroke="none" 
	d="
M266.978149,101.672127 
	C266.514587,101.695694 266.055939,101.350052 265.301025,101.012161 
	C265.004730,101.019920 265.047882,101.008827 265.032654,100.703674 
	C264.677216,100.251045 264.337067,100.103561 263.991760,99.976913 
	C263.986664,99.997749 264.025818,99.985092 264.118011,99.737122 
	C264.172028,99.316971 264.133820,99.144791 264.095642,98.972610 
	C265.058105,99.749374 266.020569,100.526138 266.978149,101.672127 
z"/>
<path fill="#F4FCFD" opacity="1.000000" stroke="none" 
	d="
M19.180609,217.896896 
	C19.367813,217.334122 19.631571,217.040375 19.895329,216.746628 
	C20.093065,217.274414 20.290798,217.802200 20.488533,218.329987 
	C20.078075,218.275299 19.667620,218.220612 19.180609,217.896896 
z"/>
<path fill="#F3FBFB" opacity="1.000000" stroke="none" 
	d="
M280.036133,95.295296 
	C280.684906,95.729767 281.321259,96.528870 282.024658,97.634674 
	C281.402374,97.180893 280.713074,96.420410 280.036133,95.295296 
z"/>
<path fill="#4A738F" opacity="1.000000" stroke="none" 
	d="
M90.982529,267.730896 
	C90.542931,267.719025 90.108253,267.346924 89.416389,266.831238 
	C89.159210,266.687653 89.092072,266.305756 89.008423,265.932678 
	C88.924774,265.559601 88.884338,265.114655 88.923126,265.072632 
	C88.961906,265.030609 89.033859,264.941711 89.033859,264.941711 
	C89.685059,265.751373 90.336258,266.561035 90.982529,267.730896 
z"/>
<path fill="#E8F9FC" opacity="1.000000" stroke="none" 
	d="
M199.030609,40.483238 
	C199.539780,40.296967 200.092621,40.391350 200.833282,40.706760 
	C200.372162,40.873158 199.723221,40.818527 199.030609,40.483238 
z"/>
<path fill="#4B7693" opacity="1.000000" stroke="none" 
	d="
M25.358364,145.990738 
	C25.226513,145.290359 25.365807,144.366821 25.796621,143.238556 
	C25.935263,143.945084 25.782385,144.856339 25.358364,145.990738 
z"/>
<path fill="#4B7693" opacity="1.000000" stroke="none" 
	d="
M27.279686,139.838211 
	C27.184565,139.167496 27.352926,138.286026 27.808208,137.216797 
	C27.911142,137.895172 27.727156,138.761322 27.279686,139.838211 
z"/>
<path fill="#4A738F" opacity="1.000000" stroke="none" 
	d="
M109.075439,287.285522 
	C109.601021,287.425354 110.255432,287.822968 110.963165,288.530701 
	C110.412422,288.408325 109.808342,287.975830 109.075439,287.285522 
z"/>
<path fill="#4B7693" opacity="1.000000" stroke="none" 
	d="
M28.314285,136.917786 
	C28.185116,136.519226 28.308147,135.954269 28.663696,135.206696 
	C28.786304,135.599838 28.676395,136.175613 28.314285,136.917786 
z"/>
<path fill="#E8F9FC" opacity="1.000000" stroke="none" 
	d="
M203.212463,41.409126 
	C203.598694,41.264923 204.179718,41.340164 204.932602,41.662544 
	C204.538742,41.815979 203.972992,41.722275 203.212463,41.409126 
z"/>
<path fill="#38749E" opacity="1.000000" stroke="none" 
	d="
M263.813416,98.955086 
	C264.133820,99.144791 264.172028,99.316971 263.851379,100.010513 
	C262.976746,100.018684 262.460968,99.505501 261.945190,98.992317 
	C262.122650,98.946297 262.300079,98.900276 262.743835,98.785889 
	C263.183807,98.790871 263.357483,98.864220 263.813416,98.955086 
z"/>
<path fill="#EFF9FA" opacity="1.000000" stroke="none" 
	d="
M50.986656,102.986626 
	C51.158203,102.432411 51.329754,101.878189 51.750725,101.161896 
	C52.000145,100.999809 52.018467,101.014458 52.018471,101.014458 
	C51.847450,101.570091 51.676434,102.125717 51.252747,102.840729 
	C51.000080,103.000107 50.986656,102.986626 50.986656,102.986626 
z"/>
<path fill="#F3FBFB" opacity="1.000000" stroke="none" 
	d="
M270.997559,102.997452 
	C271.162567,102.562042 271.330017,102.129166 271.497498,101.696289 
	C271.654388,101.962875 271.811310,102.229454 271.984100,102.748016 
	C272.000000,103.000000 271.998779,103.001221 271.998779,103.001221 
	C271.998779,103.001221 271.501770,103.001251 271.253326,103.003143 
	C271.004883,103.005028 271.000000,103.000000 270.997559,102.997452 
z"/>
<path fill="#EFF9FA" opacity="1.000000" stroke="none" 
	d="
M51.006790,103.006927 
	C50.841808,103.443420 50.670120,103.873100 50.498436,104.302780 
	C50.343082,104.035446 50.187729,103.768105 50.017113,103.249466 
	C50.001850,102.998169 50.000000,103.000000 49.999054,103.000916 
	C49.998108,103.001831 50.492584,102.996849 50.739620,102.991737 
	C50.986656,102.986626 51.000080,103.000107 51.006790,103.006927 
z"/>
<path fill="#4B7693" opacity="1.000000" stroke="none" 
	d="
M25.650326,121.011978 
	C25.788946,121.443619 25.652023,122.035385 25.263798,122.811340 
	C25.133257,122.387726 25.254021,121.779922 25.650326,121.011978 
z"/>
<path fill="#4B7693" opacity="1.000000" stroke="none" 
	d="
M26.298176,142.892944 
	C26.177828,142.517044 26.289425,141.956955 26.624050,141.208023 
	C26.741425,141.582382 26.635773,142.145569 26.298176,142.892944 
z"/>
<path fill="#EFF9FA" opacity="1.000000" stroke="none" 
	d="
M74.179169,76.879776 
	C74.124603,76.684708 74.304634,76.396194 74.739670,76.044655 
	C74.801025,76.249855 74.607391,76.518089 74.179169,76.879776 
z"/>
<path fill="#4A738F" opacity="1.000000" stroke="none" 
	d="
M87.939232,264.259644 
	C88.260757,264.091766 88.545258,264.253998 88.902771,264.729858 
	C89.033859,264.941711 88.961906,265.030609 88.706802,265.029480 
	C88.451706,265.028320 88.018921,264.942657 88.018921,264.942657 
	C88.018921,264.942657 87.960289,264.487915 87.939232,264.259644 
z"/>
<path fill="#E7F4F8" opacity="1.000000" stroke="none" 
	d="
M44.546284,80.564217 
	C44.477531,80.608414 44.615036,80.520020 44.546284,80.564217 
z"/>
<path fill="#EAF7FB" opacity="1.000000" stroke="none" 
	d="
M88.089035,265.166504 
	C88.018921,264.942657 88.451706,265.028320 88.668022,265.071472 
	C88.884338,265.114655 88.924774,265.559601 88.888725,265.780151 
	C88.549980,265.878540 88.318802,265.675110 88.089035,265.166504 
z"/>
<path fill="#EFF9FA" opacity="1.000000" stroke="none" 
	d="
M76.254684,74.928543 
	C76.077553,74.661720 76.248123,74.401382 76.797821,74.199829 
	C76.917480,74.453506 76.725967,74.678978 76.254684,74.928543 
z"/>
<path fill="#F3FBFB" opacity="1.000000" stroke="none" 
	d="
M214.254974,48.006790 
	C214.287079,47.897038 214.547577,47.791531 214.873932,47.859169 
	C214.939789,48.032318 214.483398,48.011028 214.254974,48.006790 
z"/>
<path fill="#4A738F" opacity="1.000000" stroke="none" 
	d="
M111.705734,289.385895 
	C111.930153,289.300659 112.306519,289.486420 112.803307,289.972107 
	C112.568375,290.066956 112.213028,289.861938 111.705734,289.385895 
z"/>
<path fill="#E8F9FC" opacity="1.000000" stroke="none" 
	d="
M200.535965,44.554619 
	C200.475189,44.591995 200.596741,44.517246 200.535965,44.554619 
z"/>
<path fill="#4A738F" opacity="1.000000" stroke="none" 
	d="
M108.311157,287.003540 
	C108.088730,286.964905 107.994324,286.501343 107.948776,286.269043 
	C108.192253,286.217041 108.481285,286.397339 108.877640,286.815063 
	C108.984970,287.052460 108.533577,287.042206 108.311157,287.003540 
z"/>
<path fill="#F3FBFB" opacity="1.000000" stroke="none" 
	d="
M279.158752,94.105896 
	C279.368134,94.049850 279.656067,94.246384 280.008850,94.704559 
	C279.794891,94.763634 279.516144,94.561058 279.158752,94.105896 
z"/>
<path fill="#4B7693" opacity="1.000000" stroke="none" 
	d="
M22.575909,128.649811 
	C22.733219,128.845642 22.647850,129.218445 22.341202,129.780457 
	C22.191025,129.588715 22.262129,129.207748 22.575909,128.649811 
z"/>
<path fill="#4B7693" opacity="1.000000" stroke="none" 
	d="
M23.663666,125.900726 
	C23.907684,126.138962 23.788561,126.440224 23.347664,126.837479 
	C23.236921,126.657494 23.328466,126.334251 23.663666,125.900726 
z"/>
<path fill="#4B7693" opacity="1.000000" stroke="none" 
	d="
M24.583698,123.672981 
	C24.744604,123.877258 24.650091,124.246857 24.332870,124.803543 
	C24.182865,124.606529 24.255571,124.222412 24.583698,123.672981 
z"/>
<path fill="#F3FBFB" opacity="1.000000" stroke="none" 
	d="
M282.533875,109.550758 
	C282.476410,109.585655 282.591370,109.515862 282.533875,109.550758 
z"/>
<path fill="#F3FBFB" opacity="1.000000" stroke="none" 
	d="
M281.463074,107.445091 
	C281.523804,107.407616 281.402344,107.482567 281.463074,107.445091 
z"/>
<path fill="#F3FBFB" opacity="1.000000" stroke="none" 
	d="
M272.000610,102.999527 
	C272.123077,103.142143 272.244934,103.285225 272.366760,103.428314 
	C272.280212,103.378899 272.193665,103.329475 272.052948,103.140640 
	C271.998779,103.001221 272.000000,103.000000 272.000610,102.999527 
z"/>
<path fill="#EFF9FA" opacity="1.000000" stroke="none" 
	d="
M51.992783,100.990677 
	C52.091640,100.953209 52.197865,100.924866 52.161278,100.955490 
	C52.018467,101.014458 52.000145,100.999809 51.992783,100.990677 
z"/>
<path fill="#F4FCFD" opacity="1.000000" stroke="none" 
	d="
M13.463947,217.445984 
	C13.524080,217.408981 13.403814,217.483002 13.463947,217.445984 
z"/>
<path fill="#F4FCFD" opacity="1.000000" stroke="none" 
	d="
M14.551527,219.465317 
	C14.585539,219.521988 14.517515,219.408646 14.551527,219.465317 
z"/>
<path fill="#EAF7FB" opacity="1.000000" stroke="none" 
	d="
M80.116928,253.104156 
	C80.326508,253.069687 80.595749,253.270264 80.869354,253.730316 
	C80.561783,253.858185 80.329407,253.641312 80.116928,253.104156 
z"/>
<path fill="#E3F6FB" opacity="1.000000" stroke="none" 
	d="
M258.234863,94.886734 
	C258.005249,94.811661 258.003418,94.632843 258.019684,94.185425 
	C258.037811,93.916809 258.508331,93.945549 258.743805,93.945923 
	C258.807068,94.225189 258.634827,94.504089 258.234863,94.886734 
z"/>
<path fill="#E7F4F8" opacity="1.000000" stroke="none" 
	d="
M41.461498,84.444061 
	C41.524334,84.404663 41.398663,84.483459 41.461498,84.444061 
z"/>
<path fill="#FAFDFD" opacity="1.000000" stroke="none" 
	d="
M249.055862,240.220749 
	C249.055862,240.220749 249.351181,239.923492 249.848404,240.025925 
	C251.225174,240.085022 252.104721,240.041687 253.228058,239.841370 
	C253.649002,239.146896 253.826172,238.609406 254.003326,238.071930 
	C254.003326,238.071930 254.291275,237.857864 254.732361,237.849670 
	C255.440353,237.629791 255.707260,237.418121 255.974167,237.206451 
	C256.304291,237.081528 256.634399,236.956604 257.533447,236.819855 
	C258.399261,236.553757 258.696167,236.299469 258.993073,236.045181 
	C260.112640,235.393555 261.232178,234.741913 262.985748,234.023895 
	C264.046844,233.564774 264.473938,233.172028 264.901001,232.779266 
	C264.901001,232.779266 264.924561,232.902939 265.129425,232.824554 
	C265.532043,232.448959 265.729828,232.151733 265.927612,231.854507 
	C265.927612,231.854507 265.953461,231.950882 266.299652,231.951324 
	C269.739594,230.425369 272.833313,228.898987 275.927063,227.372589 
	C277.076202,227.539902 278.225342,227.707199 279.836060,228.217896 
	C280.547363,228.794373 280.842743,228.900085 281.183716,228.878433 
	C281.183716,228.878433 281.068909,228.903183 281.060486,229.270126 
	C280.423859,232.241333 279.795654,234.845596 279.167480,237.449860 
	C278.444916,238.295654 277.722382,239.141464 277.186188,239.769104 
	C278.936279,241.257874 280.530090,242.613663 283.019989,244.731735 
	C275.622833,249.435501 269.394562,253.400574 263.161621,257.358307 
	C255.598114,262.160919 248.094574,267.063049 240.428299,271.695740 
	C237.941162,273.198669 235.091263,274.705414 232.289932,274.970581 
	C224.035843,275.751831 215.720306,275.864777 207.433990,276.330963 
	C201.310349,276.675446 195.158936,276.882141 189.084473,277.656708 
	C180.950516,278.693817 173.441574,278.238037 166.042252,273.806183 
	C155.780334,267.659790 144.715485,262.848083 134.491776,256.645172 
	C121.163353,248.558548 108.389595,247.235641 94.608429,258.288116 
	C93.847893,256.953491 93.282471,255.737152 92.520950,254.659393 
	C84.373108,243.127762 78.553574,230.495712 74.952744,216.876968 
	C74.579544,215.465500 75.303307,212.869217 76.407318,212.101547 
	C86.455109,205.115005 97.417519,199.918045 109.393814,197.258926 
	C123.283104,194.175034 136.508286,196.999435 148.038498,204.764145 
	C157.481689,211.123398 166.226074,218.716782 174.450119,226.626221 
	C180.726166,232.662186 187.967209,235.305817 196.067139,236.975754 
	C203.050217,238.415436 210.048355,239.943802 216.843338,242.063034 
	C220.048111,243.062561 222.792358,245.538696 225.906708,248.003906 
	C227.391434,249.776031 228.714737,250.889999 230.153687,252.344406 
	C231.892944,252.684204 233.625351,253.037460 235.108871,252.581314 
	C236.532944,252.143448 237.699036,250.866577 239.187180,250.229904 
	C240.263092,249.668015 241.130325,248.834610 242.247437,247.998749 
	C242.497299,247.996262 242.997040,247.991455 243.334656,248.022614 
	C248.047150,247.236847 250.454849,249.727219 251.765579,252.902313 
	C254.120453,248.839676 256.443146,244.832550 258.509552,241.267532 
	C255.556870,240.060760 251.944504,245.673294 249.055862,240.220749 
M214.919128,260.606445 
	C210.462982,260.101990 206.000732,259.645386 201.552399,259.079559 
	C197.202316,258.526184 192.866394,257.861450 188.524261,257.245636 
	C188.443985,257.999359 188.363724,258.753113 188.283447,259.506836 
	C199.359680,260.727631 210.435898,261.948456 221.512115,263.169250 
	C221.596344,262.647034 221.680588,262.124786 221.764816,261.602570 
	C219.769165,261.331482 217.773529,261.060394 214.919128,260.606445 
M271.708191,240.090912 
	C272.669708,240.474380 273.631195,240.857849 274.592712,241.241302 
	C274.911926,240.903244 275.231171,240.565186 275.550415,240.227127 
	C274.371857,238.831848 273.399872,236.547974 271.973999,236.216537 
	C268.427277,235.392044 265.223328,236.625565 262.609131,240.426559 
	C265.856323,240.268890 268.390869,240.145813 271.708191,240.090912 
M260.079407,240.347183 
	C260.302094,240.595886 260.524780,240.844589 260.747467,241.093307 
	C260.920135,240.572983 261.092804,240.052658 261.265442,239.532318 
	C260.908966,239.636780 260.552460,239.741241 260.079407,240.347183 
z"/>
<path fill="#F9FCFC" opacity="1.000000" stroke="none" 
	d="
M154.036545,126.965950 
	C154.002045,126.791985 153.967560,126.618027 154.195892,126.056427 
	C157.734116,123.555115 161.009491,121.441444 164.284882,119.327774 
	C164.284882,119.327782 164.082855,119.044540 164.519501,119.158203 
	C167.050369,117.929893 169.144608,116.587921 171.238831,115.245941 
	C171.238831,115.245941 171.129822,115.119560 171.491028,115.169273 
	C172.766708,114.584541 173.681198,113.950089 174.595673,113.315643 
	C175.281387,113.019341 175.967087,112.723030 177.177582,112.173424 
	C181.293106,109.687195 184.883850,107.454269 188.474579,105.221344 
	C188.474579,105.221344 188.785965,105.203178 189.220673,105.063354 
	C190.868820,104.062790 192.082245,103.202057 193.295670,102.341324 
	C193.295670,102.341324 193.138565,102.034599 193.578156,102.149155 
	C196.678604,102.176323 199.339432,102.088943 202.000275,102.001564 
	C202.000275,102.001564 202.203552,102.225998 202.536194,102.527100 
	C204.906189,103.913979 206.943512,104.999748 208.980850,106.085510 
	C208.980850,106.085510 209.138077,106.299088 209.469238,106.593307 
	C215.546570,110.164925 221.292740,113.442329 227.038910,116.719734 
	C228.311020,117.522652 229.583115,118.325577 231.363007,119.479889 
	C234.918594,121.512047 237.966385,123.192802 241.014175,124.873550 
	C241.365570,125.421852 241.716949,125.970161 241.755646,126.870743 
	C240.881012,127.735344 240.319077,128.247696 239.757141,128.760040 
	C239.757141,128.760040 239.980423,128.773300 239.516769,128.791367 
	C227.015442,135.841293 214.882309,142.717468 202.999481,150.001938 
	C199.532181,152.127502 196.976730,152.181274 193.537033,150.111725 
	C180.461548,142.244644 167.217545,134.657654 154.036545,126.965950 
z"/>
<path fill="#FBFDFD" opacity="1.000000" stroke="none" 
	d="
M218.406082,198.727707 
	C218.074097,198.808624 217.742111,198.889557 216.923187,199.156403 
	C215.821320,199.829620 215.206375,200.316925 214.591446,200.804214 
	C214.591446,200.804214 214.251251,200.843582 213.796906,200.992035 
	C212.052750,202.003967 210.762939,202.867447 209.473114,203.730927 
	C209.473129,203.730942 209.173630,203.761948 208.735504,203.914108 
	C206.200562,205.384811 204.103760,206.703354 202.006973,208.021896 
	C201.527054,207.575150 201.047150,207.128403 200.584259,205.927277 
	C200.640915,190.545334 200.751312,175.917313 200.659195,161.290573 
	C200.641251,158.438904 201.535812,156.737259 204.039169,155.347183 
	C210.284698,151.879166 216.375366,148.133087 222.545898,144.528992 
	C229.813812,140.283920 237.100403,136.070816 244.814209,131.591019 
	C245.190109,134.580185 245.472504,136.825806 245.754898,139.071411 
	C245.711777,151.387421 245.668655,163.703445 245.521179,176.810135 
	C245.838821,181.376022 244.106277,183.559647 240.767227,185.366364 
	C234.221039,188.908371 227.947739,192.954712 221.561493,196.792328 
	C221.106659,196.976578 220.651825,197.160828 219.741348,197.605133 
	C218.992493,198.152710 218.699295,198.440216 218.406082,198.727707 
z"/>
<path fill="#FBFDFD" opacity="1.000000" stroke="none" 
	d="
M169.140045,193.713989 
	C168.729752,193.426559 168.319458,193.139130 167.480438,192.533066 
	C163.625336,190.177231 160.341263,187.828918 156.737106,186.180481 
	C152.087433,184.053879 150.437973,181.031738 150.571884,175.785187 
	C150.885132,163.511093 150.413712,151.216980 150.260010,138.930969 
	C150.306290,138.514343 150.352554,138.097717 150.496918,137.046387 
	C150.752640,134.966324 150.910233,133.520966 151.077774,131.984360 
	C151.837112,132.124054 152.386307,132.086945 152.778488,132.317230 
	C166.096542,140.137619 179.451614,147.898422 192.629883,155.948486 
	C194.049850,156.815857 195.153625,159.373993 195.179016,161.165207 
	C195.379196,175.283966 195.294510,189.406967 195.251862,203.528519 
	C195.248245,204.726624 194.913071,205.923721 194.683029,207.444565 
	C191.770920,206.141632 189.386826,205.074951 187.002731,204.008255 
	C187.002731,204.008255 186.794495,203.778000 186.453369,203.478333 
	C180.454834,200.023788 174.797440,196.868881 169.140045,193.713989 
z"/>
<path fill="#5683A4" opacity="1.000000" stroke="none" 
	d="
M187.039612,204.367767 
	C189.386826,205.074951 191.770920,206.141632 194.683029,207.444565 
	C194.913071,205.923721 195.248245,204.726624 195.251862,203.528519 
	C195.294510,189.406967 195.379196,175.283966 195.179016,161.165207 
	C195.153625,159.373993 194.049850,156.815857 192.629883,155.948486 
	C179.451614,147.898422 166.096542,140.137619 152.778488,132.317230 
	C152.386307,132.086945 151.837112,132.124054 151.077774,131.984360 
	C150.910233,133.520966 150.752640,134.966324 150.427704,136.737762 
	C148.086502,133.794830 148.380341,131.347321 152.427856,129.869507 
	C153.114334,129.618866 153.473587,128.471985 154.010284,127.352570 
	C167.217545,134.657654 180.461548,142.244644 193.537033,150.111725 
	C196.976730,152.181274 199.532181,152.127502 202.999481,150.001938 
	C214.882309,142.717468 227.015442,135.841293 239.404968,128.773163 
	C240.175278,129.367172 240.519348,130.476334 241.023590,130.554688 
	C246.940430,131.473984 247.587372,132.380844 246.074951,138.831177 
	C245.472504,136.825806 245.190109,134.580185 244.814209,131.591019 
	C237.100403,136.070816 229.813812,140.283920 222.545898,144.528992 
	C216.375366,148.133087 210.284698,151.879166 204.039169,155.347183 
	C201.535812,156.737259 200.641251,158.438904 200.659195,161.290573 
	C200.751312,175.917313 200.640915,190.545334 200.431366,205.617493 
	C198.455338,206.564224 196.649216,207.066345 194.843079,207.568466 
	C194.744690,208.215500 194.646317,208.862549 194.547928,209.509583 
	C192.057449,207.915482 189.566971,206.321381 187.039612,204.367767 
z"/>
<path fill="#EBF6F9" opacity="1.000000" stroke="none" 
	d="
M242.997040,247.991455 
	C242.997040,247.991455 242.497299,247.996262 242.015259,247.998718 
	C241.533218,248.001160 241.068848,248.005463 241.042297,247.657166 
	C241.206375,246.616409 241.396988,245.923935 241.587601,245.231476 
	C241.279282,244.889755 240.970963,244.548019 240.662659,244.206299 
	C237.121109,246.805511 233.579575,249.404739 230.038025,252.003967 
	C228.714737,250.889999 227.391434,249.776031 226.041748,248.314514 
	C227.620682,243.515839 237.853210,236.884598 242.875427,237.286560 
	C243.955444,237.373001 244.949738,238.530487 245.999542,239.953278 
	C245.009384,243.138474 244.003204,245.564957 242.997040,247.991455 
z"/>
<path fill="#5683A4" opacity="1.000000" stroke="none" 
	d="
M149.922180,139.198395 
	C150.413712,151.216980 150.885132,163.511093 150.571884,175.785187 
	C150.437973,181.031738 152.087433,184.053879 156.737106,186.180481 
	C160.341263,187.828918 163.625336,190.177231 167.222763,192.514435 
	C161.602188,189.965469 155.791077,187.154404 150.050110,184.206741 
	C149.498306,183.923416 149.100342,182.788223 149.106400,182.052383 
	C149.223221,167.856506 149.411102,153.661209 149.922180,139.198395 
z"/>
<path fill="#F0F8FA" opacity="1.000000" stroke="none" 
	d="
M243.334656,248.022614 
	C244.003204,245.564957 245.009384,243.138474 246.021500,240.317535 
	C246.784317,239.998276 247.541168,240.073425 248.676941,240.184662 
	C251.944504,245.673294 255.556870,240.060760 258.509552,241.267532 
	C256.443146,244.832550 254.120453,248.839676 251.765579,252.902313 
	C250.454849,249.727219 248.047150,247.236847 243.334656,248.022614 
z"/>
<path fill="#5683A4" opacity="1.000000" stroke="none" 
	d="
M221.972260,196.853729 
	C227.947739,192.954712 234.221039,188.908371 240.767227,185.366364 
	C244.106277,183.559647 245.838821,181.376022 245.591339,177.270966 
	C245.784286,179.293579 246.721176,183.106018 245.674088,183.764725 
	C238.136047,188.506882 230.195740,192.609589 221.972260,196.853729 
z"/>
<path fill="#5683A4" opacity="1.000000" stroke="none" 
	d="
M169.128662,194.093964 
	C174.797440,196.868881 180.454834,200.023788 186.298248,203.472412 
	C179.983566,201.998932 173.934525,199.387527 169.128662,194.093964 
z"/>
<path fill="#5683A4" opacity="1.000000" stroke="none" 
	d="
M226.986084,116.386330 
	C221.292740,113.442329 215.546570,110.164925 209.601624,106.600906 
	C213.083237,107.883621 216.883087,109.228386 220.402390,111.100525 
	C222.783646,112.367271 224.770157,114.376045 226.986084,116.386330 
z"/>
<path fill="#5683A4" opacity="1.000000" stroke="none" 
	d="
M163.892807,119.226448 
	C161.009491,121.441444 157.734116,123.555115 154.131012,125.798447 
	C154.619751,124.456421 155.082062,122.393356 156.331696,121.645012 
	C158.460831,120.369972 161.084702,119.921097 163.892807,119.226448 
z"/>
<path fill="#5683A4" opacity="1.000000" stroke="none" 
	d="
M188.073120,105.174530 
	C184.883850,107.454269 181.293106,109.687195 177.348572,111.948799 
	C179.063385,107.371185 183.416824,106.326302 188.073120,105.174530 
z"/>
<path fill="#5683A4" opacity="1.000000" stroke="none" 
	d="
M240.973450,124.531708 
	C237.966385,123.192802 234.918594,121.512047 231.679611,119.541153 
	C234.636520,120.897301 237.784622,122.543587 240.973450,124.531708 
z"/>
<path fill="#F0F8FA" opacity="1.000000" stroke="none" 
	d="
M275.555908,227.277405 
	C272.833313,228.898987 269.739594,230.425369 266.256897,231.925629 
	C268.973541,230.327057 272.079163,228.754639 275.555908,227.277405 
z"/>
<path fill="#5683A4" opacity="1.000000" stroke="none" 
	d="
M201.955566,101.627838 
	C199.339432,102.088943 196.678604,102.176323 193.638702,102.310463 
	C195.971497,98.041214 198.447205,97.725533 201.955566,101.627838 
z"/>
<path fill="#F0F8FA" opacity="1.000000" stroke="none" 
	d="
M279.467255,237.283691 
	C279.795654,234.845596 280.423859,232.241333 281.097534,229.224579 
	C286.588898,232.558746 281.175293,234.506348 279.467255,237.283691 
z"/>
<path fill="#5683A4" opacity="1.000000" stroke="none" 
	d="
M202.216995,208.282639 
	C204.103760,206.703354 206.200562,205.384811 208.644958,204.034393 
	C206.804047,205.516144 204.615540,207.029770 202.216995,208.282639 
z"/>
<path fill="#45738D" opacity="1.000000" stroke="none" 
	d="
M71.811539,77.004875 
	C70.019119,78.032448 67.892868,79.003418 65.403610,80.023491 
	C66.101830,76.796799 67.325737,73.856171 71.811539,77.004875 
z"/>
<path fill="#E3F6FB" opacity="1.000000" stroke="none" 
	d="
M261.562103,98.991707 
	C262.460968,99.505501 262.976746,100.018684 263.759155,100.258484 
	C264.025818,99.985092 263.986664,99.997749 263.843811,100.360031 
	C264.149963,100.817818 264.598907,100.913322 265.047882,101.008835 
	C265.047882,101.008827 265.004730,101.019920 265.010376,100.999893 
	C264.797882,101.897842 264.579712,102.815811 264.234955,104.266533 
	C262.422150,102.624458 260.797821,101.153099 259.028015,99.374115 
	C259.648041,99.041359 260.413544,99.016228 261.562103,98.991707 
z"/>
<path fill="#5683A4" opacity="1.000000" stroke="none" 
	d="
M170.858856,115.168861 
	C169.144608,116.587921 167.050369,117.929893 164.604462,119.309998 
	C166.328140,117.929344 168.403519,116.510559 170.858856,115.168861 
z"/>
<path fill="#5683A4" opacity="1.000000" stroke="none" 
	d="
M208.950378,105.715164 
	C206.943512,104.999748 204.906189,103.913979 202.687485,102.533005 
	C204.644058,103.273468 206.781982,104.309143 208.950378,105.715164 
z"/>
<path fill="#5683A4" opacity="1.000000" stroke="none" 
	d="
M192.921326,102.236649 
	C192.082245,103.202057 190.868820,104.062790 189.322174,104.944939 
	C190.174957,104.021561 191.360962,103.076767 192.921326,102.236649 
z"/>
<path fill="#5683A4" opacity="1.000000" stroke="none" 
	d="
M209.852036,203.796844 
	C210.762939,202.867447 212.052750,202.003967 213.679199,201.116379 
	C212.754196,202.015762 211.492569,202.939255 209.852036,203.796844 
z"/>
<path fill="#4A738F" opacity="1.000000" stroke="none" 
	d="
M93.520134,271.889771 
	C93.163177,271.394104 93.035851,271.045166 92.847290,270.424316 
	C93.519478,270.868286 94.252914,271.584137 94.981056,272.669159 
	C94.567093,272.704376 94.158432,272.370422 93.520134,271.889771 
z"/>
<path fill="#5683A4" opacity="1.000000" stroke="none" 
	d="
M174.218323,113.237473 
	C173.681198,113.950089 172.766708,114.584541 171.513306,115.249702 
	C172.063248,114.573387 172.952118,113.866348 174.218323,113.237473 
z"/>
<path fill="#E3F6FB" opacity="1.000000" stroke="none" 
	d="
M255.992920,96.644394 
	C256.336121,95.967545 256.822479,95.528496 257.651123,95.048157 
	C257.982239,95.800591 257.971008,96.594307 257.933289,97.783920 
	C257.316498,97.747276 256.726288,97.314728 255.992920,96.644394 
z"/>
<path fill="#5683A4" opacity="1.000000" stroke="none" 
	d="
M214.923218,200.849792 
	C215.206375,200.316925 215.821320,199.829620 216.738037,199.339752 
	C216.444901,199.856583 215.849945,200.375977 214.923218,200.849792 
z"/>
<path fill="#F0F8FA" opacity="1.000000" stroke="none" 
	d="
M253.709930,238.055634 
	C253.826172,238.609406 253.649002,239.146896 253.002106,239.719849 
	C252.342285,239.475174 252.152206,239.195023 251.962128,238.914886 
	C252.446945,238.623047 252.931747,238.331177 253.709930,238.055634 
z"/>
<path fill="#EBF6F9" opacity="1.000000" stroke="none" 
	d="
M251.650513,238.936081 
	C252.152206,239.195023 252.342285,239.475174 252.758316,239.876831 
	C252.104721,240.041687 251.225174,240.085022 250.055878,239.996918 
	C250.290390,239.562744 250.814651,239.260010 251.650513,238.936081 
z"/>
<path fill="#5683A4" opacity="1.000000" stroke="none" 
	d="
M240.085434,128.816559 
	C240.319077,128.247696 240.881012,127.735344 241.738190,127.199692 
	C241.493546,127.741936 240.953644,128.307510 240.085434,128.816559 
z"/>
<path fill="#F0F8FA" opacity="1.000000" stroke="none" 
	d="
M264.609131,232.833374 
	C264.473938,233.172028 264.046844,233.564774 263.307434,233.977203 
	C263.435852,233.627075 263.876556,233.257263 264.609131,232.833374 
z"/>
<path fill="#4A738F" opacity="1.000000" stroke="none" 
	d="
M83.895821,257.845276 
	C83.695183,257.886169 83.417580,257.700806 83.124603,257.258362 
	C83.417862,257.124390 83.654411,257.330322 83.895821,257.845276 
z"/>
<path fill="#4A738F" opacity="1.000000" stroke="none" 
	d="
M92.816925,269.925903 
	C92.604111,269.988159 92.311264,269.781494 91.923630,269.312927 
	C92.131531,269.253021 92.434219,269.455017 92.816925,269.925903 
z"/>
<path fill="#45738D" opacity="1.000000" stroke="none" 
	d="
M64.832108,80.126938 
	C64.893288,80.321037 64.713829,80.615799 64.282272,80.996635 
	C64.217270,80.797676 64.404366,80.512642 64.832108,80.126938 
z"/>
<path fill="#4A738F" opacity="1.000000" stroke="none" 
	d="
M95.883942,273.804810 
	C95.695663,273.861969 95.409821,273.684601 95.041069,273.261719 
	C95.234238,273.200867 95.510307,273.385620 95.883942,273.804810 
z"/>
<path fill="#4A738F" opacity="1.000000" stroke="none" 
	d="
M96.880920,274.891602 
	C96.686539,274.937469 96.406265,274.731445 96.043266,274.271484 
	C96.238701,274.224945 96.516876,274.432343 96.880920,274.891602 
z"/>
<path fill="#4A738F" opacity="1.000000" stroke="none" 
	d="
M98.833351,276.897400 
	C98.628860,276.960083 98.332481,276.759521 97.930435,276.304596 
	C98.130325,276.244843 98.435890,276.439484 98.833351,276.897400 
z"/>
<path fill="#4A738F" opacity="1.000000" stroke="none" 
	d="
M99.834221,277.900879 
	C99.615585,277.975525 99.309204,277.789673 98.919373,277.340942 
	C99.139442,277.265533 99.442963,277.452972 99.834221,277.900879 
z"/>
<path fill="#4A738F" opacity="1.000000" stroke="none" 
	d="
M100.830238,278.910156 
	C100.617538,278.979218 100.320404,278.786163 99.931122,278.335358 
	C100.141251,278.267731 100.443527,278.457886 100.830238,278.910156 
z"/>
<path fill="#4A738F" opacity="1.000000" stroke="none" 
	d="
M101.822800,279.920532 
	C101.602074,279.993988 101.300743,279.801819 100.912827,279.347473 
	C101.131546,279.275146 101.436867,279.464996 101.822800,279.920532 
z"/>
<path fill="#4A738F" opacity="1.000000" stroke="none" 
	d="
M102.823303,280.918335 
	C102.601730,280.995880 102.296883,280.807739 101.902695,280.358093 
	C102.122246,280.281921 102.431129,280.467316 102.823303,280.918335 
z"/>
<path fill="#4A738F" opacity="1.000000" stroke="none" 
	d="
M103.817749,281.925720 
	C103.594643,282.000977 103.292244,281.808929 102.902740,281.355103 
	C103.123238,281.281708 103.430847,281.470032 103.817749,281.925720 
z"/>
<path fill="#4A738F" opacity="1.000000" stroke="none" 
	d="
M104.835915,282.986206 
	C104.608803,283.055115 104.297623,282.846741 103.897018,282.366028 
	C104.122337,282.298798 104.437096,282.503876 104.835915,282.986206 
z"/>
<path fill="#4A738F" opacity="1.000000" stroke="none" 
	d="
M106.847664,284.850891 
	C106.644173,284.928375 106.325851,284.750610 105.892036,284.318939 
	C106.095306,284.241913 106.414070,284.418793 106.847664,284.850891 
z"/>
<path fill="#4A738F" opacity="1.000000" stroke="none" 
	d="
M107.865555,285.847351 
	C107.666847,285.911163 107.368370,285.729950 106.982178,285.295105 
	C107.184898,285.228424 107.475342,285.415375 107.865555,285.847351 
z"/>
<path fill="#5683A4" opacity="1.000000" stroke="none" 
	d="
M218.739944,198.720871 
	C218.699295,198.440216 218.992493,198.152710 219.593689,197.805969 
	C219.625702,198.069153 219.349747,198.391586 218.739944,198.720871 
z"/>
<path fill="#F0F8FA" opacity="1.000000" stroke="none" 
	d="
M281.079590,228.642914 
	C280.842743,228.900085 280.547363,228.794373 280.159424,228.364899 
	C280.339325,228.248138 280.657379,228.327759 281.079590,228.642914 
z"/>
<path fill="#F0F8FA" opacity="1.000000" stroke="none" 
	d="
M265.667542,231.940659 
	C265.729828,232.151733 265.532043,232.448959 265.066895,232.817505 
	C265.002136,232.601486 265.204803,232.314148 265.667542,231.940659 
z"/>
<path fill="#F0F8FA" opacity="1.000000" stroke="none" 
	d="
M258.692291,236.066742 
	C258.696167,236.299469 258.399261,236.553757 257.799500,236.834152 
	C257.794952,236.602936 258.093231,236.345612 258.692291,236.066742 
z"/>
<path fill="#E3F6FB" opacity="1.000000" stroke="none" 
	d="
M251.963928,93.322014 
	C252.164963,93.251801 252.462769,93.432175 252.863129,93.859238 
	C252.664001,93.928139 252.362366,93.750366 251.963928,93.322014 
z"/>
<path fill="#F0F8FA" opacity="1.000000" stroke="none" 
	d="
M255.706161,237.197922 
	C255.707260,237.418121 255.440353,237.629791 254.911438,237.860229 
	C254.912338,237.649124 255.175247,237.419250 255.706161,237.197922 
z"/>
<path fill="#45738D" opacity="1.000000" stroke="none" 
	d="
M57.883072,87.142632 
	C57.939571,87.335754 57.742481,87.631775 57.296219,88.036331 
	C57.241196,87.845078 57.435337,87.545311 57.883072,87.142632 
z"/>
<path fill="#45738D" opacity="1.000000" stroke="none" 
	d="
M59.838348,85.133011 
	C59.896461,85.322632 59.710480,85.617912 59.275948,86.013763 
	C59.216351,85.822456 59.405304,85.530571 59.838348,85.133011 
z"/>
<path fill="#45738D" opacity="1.000000" stroke="none" 
	d="
M60.822788,84.122688 
	C61.060555,84.017097 60.986881,84.478065 60.991722,84.735916 
	C60.996559,84.993767 60.938786,84.912865 60.938786,84.912865 
	C60.938786,84.912865 60.483788,84.997139 60.256462,85.041069 
	C60.214432,84.799431 60.399727,84.513855 60.822788,84.122688 
z"/>
<path fill="#45738D" opacity="1.000000" stroke="none" 
	d="
M61.832001,83.122696 
	C61.887463,83.313828 61.704422,83.605034 61.269260,83.977554 
	C61.209259,83.780174 61.401379,83.501472 61.832001,83.122696 
z"/>
<path fill="#45738D" opacity="1.000000" stroke="none" 
	d="
M62.836273,82.125702 
	C62.891972,82.316200 62.707664,82.607063 62.272884,82.984192 
	C62.213699,82.789001 62.404984,82.507530 62.836273,82.125702 
z"/>
<path fill="#45738D" opacity="1.000000" stroke="none" 
	d="
M63.840553,81.128090 
	C63.899353,81.323586 63.715878,81.617073 63.278801,81.993134 
	C63.216225,81.792503 63.407253,81.509293 63.840553,81.128090 
z"/>
<path fill="#38749E" opacity="1.000000" stroke="none" 
	d="
M289.960358,124.039772 
	C289.594666,123.608162 289.441925,122.984215 289.289154,122.360275 
	C289.611969,122.556580 289.934814,122.752884 290.413177,123.190399 
	C290.436920,123.570221 290.305084,123.708832 289.960358,124.039772 
z"/>
<path fill="#DFF5FB" opacity="1.000000" stroke="none" 
	d="
M20.823944,153.227722 
	C20.403316,155.972717 20.009977,158.330566 19.373224,161.014496 
	C18.717676,159.955170 18.305540,158.569778 17.532852,157.102478 
	C18.101343,153.792694 19.030386,150.564789 19.959429,147.336899 
	C20.256697,147.413712 20.553967,147.490509 20.851234,147.567307 
	C20.851234,149.325073 20.851234,151.082840 20.823944,153.227722 
z"/>
<path fill="#ABBDCC" opacity="1.000000" stroke="none" 
	d="
M17.639565,180.172089 
	C17.855976,181.046021 17.882967,182.179230 17.776936,183.719376 
	C17.579325,182.894669 17.514732,181.663025 17.639565,180.172089 
z"/>
<path fill="#FEFEFE" opacity="1.000000" stroke="none" 
	d="
M60.955101,84.966431 
	C61.438816,85.185173 61.977135,85.409546 62.470394,85.708313 
	C62.524303,85.740967 62.318829,86.201851 62.233658,86.464119 
	C61.834602,86.141586 61.435551,85.819054 60.987640,85.204697 
	C60.938786,84.912865 60.996559,84.993767 60.955101,84.966431 
z"/>
<path fill="#38749E" opacity="1.000000" stroke="none" 
	d="
M265.032654,100.703682 
	C264.598907,100.913322 264.149963,100.817818 263.848938,100.339195 
	C264.337067,100.103561 264.677216,100.251045 265.032654,100.703682 
z"/>
<path fill="#7C93A4" opacity="1.000000" stroke="none" 
	d="
M215.348511,260.697876 
	C217.773529,261.060394 219.769165,261.331482 221.764816,261.602570 
	C221.680588,262.124786 221.596344,262.647034 221.512115,263.169250 
	C210.435898,261.948456 199.359680,260.727631 188.283447,259.506836 
	C188.363724,258.753113 188.443985,257.999359 188.524261,257.245636 
	C192.866394,257.861450 197.202316,258.526184 201.552399,259.079559 
	C206.000732,259.645386 210.462982,260.101990 215.348511,260.697876 
z"/>
<path fill="#90A5B3" opacity="1.000000" stroke="none" 
	d="
M230.153687,252.344391 
	C233.579575,249.404739 237.121109,246.805511 240.662659,244.206299 
	C240.970963,244.548019 241.279282,244.889755 241.587601,245.231476 
	C241.396988,245.923935 241.206375,246.616409 240.889099,247.908722 
	C240.167786,248.991852 239.573135,249.475128 238.978485,249.958389 
	C237.699036,250.866577 236.532944,252.143448 235.108871,252.581314 
	C233.625351,253.037460 231.892944,252.684204 230.153687,252.344391 
z"/>
<path fill="#F0F8FA" opacity="1.000000" stroke="none" 
	d="
M271.316772,240.056824 
	C268.390869,240.145813 265.856323,240.268890 262.609131,240.426559 
	C265.223328,236.625565 268.427277,235.392044 271.973999,236.216537 
	C273.399872,236.547974 274.371857,238.831848 275.550415,240.227127 
	C275.231171,240.565186 274.911926,240.903244 274.592712,241.241302 
	C273.631195,240.857849 272.669708,240.474380 271.316772,240.056824 
z"/>
<path fill="#F0F8FA" opacity="1.000000" stroke="none" 
	d="
M239.187180,250.229904 
	C239.573135,249.475128 240.167786,248.991852 240.915649,248.257019 
	C241.068848,248.005463 241.533218,248.001160 241.765381,248.001190 
	C241.130325,248.834610 240.263092,249.668015 239.187180,250.229904 
z"/>
<path fill="#F0F8FA" opacity="1.000000" stroke="none" 
	d="
M260.137695,240.096451 
	C260.552460,239.741241 260.908966,239.636780 261.265442,239.532318 
	C261.092804,240.052658 260.920135,240.572983 260.747467,241.093307 
	C260.524780,240.844589 260.302094,240.595886 260.137695,240.096451 
z"/>
</svg>